<?xml version="1.0" standalone="no"?>
<!DOCTYPE svg PUBLIC "-//W3C//DTD SVG 20010904//EN"
 "http://www.w3.org/TR/2001/REC-SVG-20010904/DTD/svg10.dtd">
<svg version="1.0" xmlns="http://www.w3.org/2000/svg"
 width="620.000000pt" height="618.000000pt" viewBox="0 0 620.000000 618.000000"
 preserveAspectRatio="xMidYMid meet">

<g transform="translate(0.000000,618.000000) scale(0.100000,-0.100000)"
fill="#000000" stroke="none">
<path d="M3081 3648 c-6 -29 -17 -100 -26 -158 -9 -58 -21 -131 -27 -163 -9
-49 -9 -61 4 -73 14 -14 17 -14 32 1 9 9 16 30 16 46 0 62 85 104 122 62 9
-10 21 -35 28 -55 8 -27 17 -38 31 -38 29 0 34 25 15 73 -9 24 -16 53 -16 67
0 13 -6 31 -14 39 -7 9 -28 57 -46 106 -42 117 -59 145 -86 145 -19 0 -24 -8
-33 -52z m72 -125 c32 -77 26 -103 -24 -103 l-31 0 7 53 c12 99 22 110 48 50z"/>
<path d="M3630 3633 c-39 -15 -68 -44 -63 -63 8 -30 16 -31 59 -10 53 28 86
27 82 -2 -2 -18 -12 -24 -48 -30 -134 -22 -150 -198 -18 -198 24 0 56 -7 72
-15 21 -11 31 -12 36 -5 4 7 10 64 13 128 6 126 -4 171 -41 191 -22 12 -67 13
-92 4z m83 -173 c10 -39 -7 -75 -37 -78 -49 -6 -76 6 -76 32 0 27 17 44 57 56
43 13 50 12 56 -10z"/>
<path d="M3337 3570 c-42 -36 -49 -76 -19 -103 9 -9 47 -26 82 -39 50 -18 66
-28 68 -45 2 -16 -5 -26 -27 -37 -38 -20 -43 -20 -71 4 -17 15 -26 17 -37 9
-35 -30 10 -79 71 -79 79 0 149 74 127 133 -9 23 -90 67 -124 67 -8 0 -21 8
-30 18 -13 14 -14 21 -5 30 16 16 48 15 92 -3 41 -17 56 -13 56 15 0 27 -43
52 -99 58 -43 4 -52 1 -84 -28z"/>
<path d="M2910 3152 c-31 -16 -35 -21 -32 -52 2 -19 3 -87 3 -150 -2 -179 27
-328 68 -349 22 -12 61 4 61 25 0 9 -9 47 -21 84 -11 37 -19 85 -17 106 3 36
6 39 34 42 39 4 58 -20 104 -130 42 -103 98 -152 129 -114 10 12 3 34 -33 108
-24 51 -51 113 -59 138 l-15 45 39 40 c55 57 60 92 18 140 -68 77 -196 108
-279 67z m188 -89 c45 -33 49 -49 23 -77 -28 -30 -99 -59 -132 -54 -22 3 -24
7 -21 58 4 100 6 103 59 97 25 -2 57 -13 71 -24z"/>
<path d="M3298 3128 c-24 -20 -28 -44 -11 -67 21 -31 64 -25 81 11 24 51 -26
91 -70 56z"/>
<path d="M3512 3067 c-26 -31 -62 -125 -62 -162 0 -54 36 -114 83 -138 36 -19
41 -19 72 -4 93 45 99 225 9 296 -30 23 -86 28 -102 8z m78 -104 c25 -32 24
-90 -3 -107 -25 -16 -71 12 -75 44 -3 26 31 90 47 90 5 0 19 -12 31 -27z"/>
<path d="M1841 3031 c-14 -26 -14 -102 0 -138 17 -45 39 -282 33 -350 -6 -60
-6 -63 19 -74 67 -31 86 34 62 216 -9 72 -22 182 -28 245 l-13 115 -31 3 c-23
2 -34 -2 -42 -17z"/>
<path d="M2158 3029 c-15 -8 -18 -25 -18 -113 0 -115 -2 -119 -73 -146 -44
-17 -63 -39 -54 -64 8 -21 55 -21 86 0 15 11 26 13 32 7 6 -6 24 -84 40 -174
28 -153 47 -209 69 -209 20 0 39 32 35 58 -3 15 -16 89 -30 165 -34 189 -35
183 20 189 55 7 95 31 95 59 0 20 -5 21 -67 18 l-68 -4 -3 30 c-2 17 1 63 8
104 10 60 9 75 -2 82 -18 12 -49 11 -70 -2z"/>
<path d="M3294 2956 c-14 -22 -15 -42 -9 -133 9 -140 15 -155 57 -151 l33 3
-1 150 -1 150 -31 3 c-24 2 -35 -3 -48 -22z"/>
<path d="M2473 2935 c-54 -25 -62 -39 -43 -76 14 -24 30 -24 74 2 47 28 110
23 114 -8 3 -23 0 -25 -78 -37 -103 -17 -167 -117 -128 -201 16 -36 59 -56
132 -62 34 -3 69 -12 78 -21 10 -8 24 -12 32 -9 19 7 24 41 30 201 4 102 2
136 -11 168 -28 70 -106 87 -200 43z m140 -238 c-2 -70 -7 -77 -52 -77 -49 0
-90 15 -98 36 -14 38 71 97 132 91 17 -2 20 -9 18 -50z"/>
<path d="M1168 2929 c-31 -12 -36 -34 -14 -58 16 -17 66 -259 66 -316 0 -19
-6 -44 -12 -55 -28 -45 36 -82 104 -59 93 30 178 145 178 242 0 63 -18 103
-69 154 -81 81 -184 118 -253 92z m190 -131 c43 -42 62 -78 62 -120 -1 -66
-60 -158 -102 -158 -10 0 -18 2 -18 4 0 3 -9 58 -19 123 -11 65 -22 135 -25
157 l-5 38 36 -5 c22 -4 50 -19 71 -39z"/>
<path d="M1590 2827 c-64 -32 -85 -113 -55 -214 31 -103 87 -154 173 -155 69
0 112 24 112 62 0 34 -21 40 -54 15 -36 -27 -107 -14 -106 20 1 5 32 34 70 63
79 60 90 83 65 136 -33 69 -139 107 -205 73z m104 -67 c50 -19 23 -91 -41
-109 -41 -12 -55 4 -51 56 2 28 9 41 28 50 30 15 32 15 64 3z"/>
</g>
</svg>
